<?xml version="1.0" standalone="no"?>
<!DOCTYPE svg PUBLIC "-//W3C//DTD SVG 20010904//EN"
 "http://www.w3.org/TR/2001/REC-SVG-20010904/DTD/svg10.dtd">
<svg version="1.0" xmlns="http://www.w3.org/2000/svg"
 width="1024.000000pt" height="1024.000000pt" viewBox="0 0 1024.000000 1024.000000"
 preserveAspectRatio="xMidYMid meet">
<metadata>
Created by potrace 1.14, written by Peter Selinger 2001-2017
</metadata>
<g transform="translate(0.000000,1024.000000) scale(0.100000,-0.100000)"
fill="#000000" stroke="none">
<path d="M90 9400 l0 -760 83 0 c45 0 361 7 702 15 341 8 633 15 649 15 l29 0
-7 -762 c-4 -420 -9 -826 -11 -903 -2 -77 -7 -448 -10 -825 -3 -377 -8 -759
-10 -850 -2 -91 -7 -500 -10 -910 -3 -410 -8 -790 -10 -845 -3 -55 -7 -404
-10 -775 -3 -371 -7 -790 -10 -930 -4 -242 -19 -1393 -20 -1529 0 -72 -9 -64
135 -136 257 -131 486 -151 719 -64 78 29 237 107 248 121 5 8 6 165 2 393 -4
209 -10 675 -13 1035 -3 360 -8 756 -11 880 -3 124 -7 455 -10 735 -3 281 -7
571 -10 645 -3 83 -1 127 4 115 5 -11 23 -94 41 -185 105 -553 285 -950 643
-1420 652 -855 1723 -1577 2957 -1993 476 -161 944 -268 1440 -331 230 -30
395 -41 365 -26 -11 5 -117 50 -235 99 -613 253 -1247 553 -1640 774 -736 414
-1305 898 -1677 1423 -522 738 -830 1492 -883 2164 -48 594 158 1231 557 1725
123 152 315 341 418 411 488 331 928 500 1445 554 198 20 571 0 815 -46 349
-64 898 -267 1190 -439 82 -48 170 -83 181 -72 3 3 38 71 78 153 41 82 80 157
88 167 9 12 64 34 139 56 l124 38 82 144 c45 79 83 147 85 151 2 4 59 19 128
33 69 14 133 28 142 31 15 4 18 18 18 80 0 267 131 540 460 954 383 483 471
617 560 854 87 232 93 400 18 551 -108 220 -365 302 -594 190 -166 -81 -330
-334 -507 -780 -230 -583 -275 -691 -334 -809 -140 -282 -266 -430 -430 -508
-35 -17 -63 -34 -63 -40 0 -6 25 -67 56 -136 35 -79 53 -131 47 -139 -4 -6
-30 -44 -56 -83 l-49 -71 -36 23 c-204 126 -599 325 -827 416 -307 122 -609
208 -875 248 -25 3 -52 8 -60 9 -115 20 -274 30 -505 29 -283 0 -429 -15 -672
-65 -351 -72 -727 -221 -1058 -420 -142 -86 -331 -222 -421 -304 -6 -5 -45
-41 -87 -78 -148 -133 -375 -403 -509 -606 -231 -349 -389 -714 -497 -1146
-28 -113 -69 -326 -73 -384 -4 -60 -13 193 -16 449 -2 151 -7 563 -12 915 -5
352 -12 957 -16 1344 l-7 704 209 -7 c115 -4 434 -16 709 -26 275 -10 704 -27
953 -36 248 -10 455 -14 458 -11 4 3 -9 25 -28 49 -19 24 -93 124 -164 223
-71 99 -206 288 -302 420 -95 132 -209 292 -254 355 -178 250 -342 476 -361
498 l-20 22 -1784 0 -1783 0 0 -760z"/>
</g>
</svg>
